<?xml version="1.0" encoding="UTF-8" standalone="no"?>
<!DOCTYPE svg PUBLIC "-//W3C//DTD SVG 1.1//EN"
"http://www.w3.org/Graphics/SVG/1.1/DTD/svg11.dtd">
<svg viewBox="0 0 935 1210" version="1.1" xmlns="http://www.w3.org/2000/svg" xmlns:xlink="http://www.w3.org/1999/xlink">
<defs>
<style type="text/css"><![CDATA[
.g0{
fill: none;
stroke: #050604;
stroke-width: 1.527;
stroke-linecap: round;
stroke-linejoin: round;
stroke-miterlimit: 4;
}
]]></style>
</defs>
<path d="M184.5,189.6H91.7L85.1,176.4l6.6,-13.2h92.8v26.4Zm0,-56.2v26.4H91.7L85.1,146.6l6.6,-13.2h92.8Zm241.6,1l-10,-19.1h-262V98.4h-8.3l-3.3,16.9H86.2L73.8,128.1M579.1,453.6h30.5V442.1l3.2,-5.5v-9.4H579.1l-6.6,13.2l6.6,13.2ZM862.4,440.4l-2.9,-5h-5.8l-2.9,5l2.9,5h5.8l2.9,-5ZM579.1,423.9h30.5V412.4l3.2,-5.5v-9.4H579.1l-6.6,13.2l6.6,13.2ZM862.4,410.7l-2.9,-5h-5.8l-2.9,5l2.9,5h5.8l2.9,-5ZM850,397.5l2.5,4.9h8.9l4.8,8.3l-4.8,8.3h-8.9l-2.5,4.9H614V413.6l3.2,-5.5V397.5H850ZM579.1,394.1h30.5V382.6l3.2,-5.4v-9.5H579.1l-6.6,13.2l6.6,13.2ZM862.4,380.9l-2.9,-5h-5.8l-2.9,5l2.9,5.1h5.8l2.9,-5.1ZM850,367.7l2.5,4.9h8.9l4.8,8.3l-4.8,8.4h-8.9l-2.5,4.8H614V383.8l3.2,-5.4V367.7H850ZM579.1,364.4h30.5V352.9l3.2,-5.5V338H579.1l-6.6,13.2l6.6,13.2ZM862.4,351.2l-2.9,-5h-5.8l-2.9,5l2.9,5h5.8l2.9,-5ZM850,338l2.5,4.9h8.9l4.8,8.3l-4.8,8.3h-8.9l-2.5,4.9H614V354.1l3.2,-5.5V338H850ZM579.1,334.7h30.5V323.1l3.2,-5.4v-9.4H579.1l-6.6,13.2l6.6,13.2ZM862.4,321.5l-2.9,-5.1h-5.8l-2.9,5.1l2.9,5h5.8l2.9,-5ZM850,308.3l2.5,4.8h8.9l4.8,8.4l-4.8,8.3h-8.9l-2.5,4.9H614V324.3l3.2,-5.4V308.3H850ZM579.1,304.9h30.5V293.4l3.2,-5.5v-9.4H579.1l-6.6,13.2l6.6,13.2ZM862.4,291.7l-2.9,-5h-5.8l-2.9,5l2.9,5h5.8l2.9,-5ZM850,278.5l2.5,4.9h8.9l4.8,8.3l-4.8,8.3h-8.9l-2.5,4.9H614V294.6l3.2,-5.5V278.5H850Zm0,-29.7l2.5,4.9h8.9l4.8,8.3l-4.8,8.3h-8.9l-2.5,4.9H614V264.9l3.2,-5.5V248.8H850ZM862.4,262l-2.9,-5h-5.8l-2.9,5l2.9,5h5.8l2.9,-5ZM579.1,275.2h30.5V263.7l3.2,-5.5v-9.4H579.1L572.5,262l6.6,13.2Zm40,-104.4h-40L572.5,184l6.6,13.2H722.3l4.4,-4.4V175.2l-4.4,-4.4H619.1ZM739,167.5h40.5V156l3.3,-5.5v-9.4H739l-6.6,13.2l6.6,13.2Zm0,29.7h40.5V185.7l3.3,-5.5v-9.4H739L732.4,184l6.6,13.2Zm44.9,-29.7V157.2l3.3,-5.5V141.1h37.6l6.6,13.2l-6.6,13.2H783.9Zm0,29.7V186.9l3.3,-5.5V170.8h37.6l6.6,13.2l-6.6,13.2H783.9ZM579.1,245.4h30.5V233.9l3.2,-5.4V219H579.1l-6.6,13.2l6.6,13.2ZM862.4,232.2l-2.9,-5h-5.8l-2.9,5l2.9,5.1h5.8l2.9,-5.1ZM282.3,1121v-10.3l3.3,-5.5v-10.6h30.5l6.6,13.2l-6.6,13.2H282.3Zm-34.8,0H278v-11.5l3.2,-5.5v-9.4H247.5l-6.6,13.2l6.6,13.2Zm215.9,0H432.9v-11.5l-3.2,-5.5v-9.4h33.7l6.6,13.2l-6.6,13.2Zm-34.9,0v-10.3l-3.2,-5.5v-10.6H394.8l-6.6,13.2l6.6,13.2h33.7Zm-70.9,0h32.2l-6.6,-13.2l6.6,-13.2H357.6V1121Zm-4.4,-26.4V1121H321l6.6,-13.2L321,1094.6h32.2Zm0,-59.5v26.4H321l6.6,-13.2L321,1035.1h32.2Zm4.4,26.4h32.2l-6.6,-13.2l6.6,-13.2H357.6v26.4Zm70.9,0v-10.3l-3.2,-5.5v-10.6H394.8l-6.6,13.2l6.6,13.2h33.7Zm34.9,0H432.9V1050l-3.2,-5.5v-9.4h33.7l6.6,13.2l-6.6,13.2Zm-215.9,0H278V1050l3.2,-5.5v-9.4H247.5l-6.6,13.2l6.6,13.2Zm34.8,0v-10.3l3.3,-5.5v-10.6h30.5l6.6,13.2l-6.6,13.2H282.3Zm0,-59.5V991.7l3.3,-5.5V975.6h30.5l6.6,13.2l-6.6,13.2H282.3Zm-34.8,0H278V990.5l3.2,-5.5v-9.4H247.5l-6.6,13.2l6.6,13.2Zm215.9,0H432.9V990.5L429.7,985v-9.4h33.7l6.6,13.2l-6.6,13.2Zm-34.9,0V991.7l-3.2,-5.5V975.6H394.8l-6.6,13.2l6.6,13.2h33.7Zm-70.9,0h32.2l-6.6,-13.2l6.6,-13.2H357.6V1002Zm-4.4,-26.4V1002H321l6.6,-13.2L321,975.6h32.2Zm214.5,56.2H483l-4.4,-4.4V975.6H851.8l14.5,28.1l-14.5,28.1H567.7Zm0,59.4H483l-4.4,-4.4v-51.7H851.8l14.5,28.1l-14.5,28H567.7Zm-339.9,3.4H75.4l-6.6,13.2l6.6,13.2H227.8l4.4,-4.4V1099l-4.4,-4.4Zm0,-59.5H75.4l-6.6,13.2l6.6,13.2H227.8l4.4,-4.4v-17.6l-4.4,-4.4ZM115.3,975.6H75.4l-6.6,13.2l6.6,13.2H227.8l4.4,-4.4V980l-4.4,-4.4H115.3ZM619.1,141.1h-40l-6.6,13.2l6.6,13.2H722.3l4.4,-4.4V145.5l-4.4,-4.4H619.1ZM559.8,436.9V282.4l-3.6,-3.5v-101H484.4l-6.5,-6.3h-43v12.3l-7.3,6.9V146.7L413.9,119.3H87l-11,11V176l-7.2,-5.6V126.6L83.3,112h56.5l3.3,-16.9h14.3V112H418.9l16,32v19.9H481l11.1,10.7h64.1v-48L570.8,112h56.4l3.3,-16.9h14.3V112H834.1L850,144v75l2.5,4.9h8.9l4.9,8.3l-4.9,8.4h-8.9l-2.5,4.8H614V235.1l3.2,-5.4V219H842.8V146.7L829.1,119.3H574.4l-11,11v310l-3.6,-3.4ZM841.3,134.4l-10,-19.1H641.5V98.4h-8.3l-3.3,16.9H573.7l-12.4,12.8M750.1,453.6l6.5,4.3h44.2l6.5,-4.3H850l2.5,-4.9h8.9l4.9,-8.3l-4.9,-8.3h-8.9L850,427.2H617.2v10.6l-3.2,5.5v10.3H750.1ZM131.7,320.3h-40l-6.6,13.2l6.6,13.2h128l4.4,-4.4V324.7l-4.4,-4.4h-88Zm0,-29.7h-40l-6.6,13.2L91.7,317h128l4.4,-4.4V295l-4.4,-4.4h-88Zm0,-29.8h-40L85.1,274l6.6,13.2h128l4.4,-4.4V265.2l-4.4,-4.4h-88Zm92.4,185.7v-22l-4.4,-4.4H91.7l-6.6,13.2l6.6,13.2h52.6l6.6,4.3h66.7l6.5,-4.3ZM131.7,390.4h-40l-6.6,13.2l6.6,13.2h128l4.4,-4.4V394.8l-4.4,-4.4h-88Zm0,-29.8h-40l-6.6,13.2L91.7,387h128l4.4,-4.4V365l-4.4,-4.4h-88ZM392,446.5V436.2l-3.2,-5.5V420.1H358.3l-6.6,13.2l6.6,13.2H392Zm34.9,0H396.4V435l-3.2,-5.5v-9.4h33.7l6.6,13.2l-6.6,13.2ZM392,416.8V406.5L388.8,401V390.4H358.3l-6.6,13.2l6.6,13.2H392Zm34.9,0H396.4V405.3l-3.2,-5.5v-9.4h33.7l6.6,13.2l-6.6,13.2ZM392,387V376.7l-3.2,-5.4V360.6H358.3l-6.6,13.2l6.6,13.2H392Zm34.9,0H396.4V375.5l-3.2,-5.4v-9.5h33.7l6.6,13.2L426.9,387ZM239.3,446.5h30.5V435l3.2,-5.5v-9.4H239.3l-6.6,13.2l6.6,13.2Zm0,-29.7h30.5V405.3l3.2,-5.5v-9.4H239.3l-6.6,13.2l6.6,13.2Zm0,-29.8h30.5V375.5l3.2,-5.4v-9.5H239.3l-6.6,13.2l6.6,13.2Zm34.9,59.5V436.2l3.2,-5.5V420.1h30.5l6.6,13.2l-6.6,13.2H274.2Zm0,-29.7V406.5l3.2,-5.5V390.4h30.5l6.6,13.2l-6.6,13.2H274.2Zm0,-29.8V376.7l3.2,-5.4V360.6h30.5l6.6,13.2L307.9,387H274.2ZM450.3,254.1l-10.1,-19H154.1V218.2h-8.3l-3.3,16.9H86.2L73.8,247.8m83.6,-32.9v16.9H443l16,31.9v47.5l-7.3,6.9V266.5L438,239H87L76,250V422.9l-3.6,-3.4V352.7l-3.7,-3.5V246.3L83.3,231.8h56.5l3.3,-16.9h14.3ZM405.5,320.3V317h-9.1V305.5L393.2,300v-9.4h12.3v-3.4h-9.1V275.7l-3.2,-5.5v-9.4h33.7l6.6,13.2l-6.6,13.2H416.3v3.4h10.6l6.6,13.2L426.9,317H416.3v3.3h10.6l6.6,13.2l-6.6,13.2H396.4V335.2l-3.2,-5.5v-9.4h12.3ZM312.8,446.5l6.7,-13.2l-6.7,-13.2h40.6l-6.6,13.2l6.6,13.2H312.8Zm0,-29.7l6.7,-13.2l-6.7,-13.2h40.6l-6.6,13.2l6.6,13.2H312.8ZM367.6,317v3.3h-9.3l-6.6,13.2l6.6,13.2H392V336.4l-3.2,-5.5V320.3H378.5V317H392V306.7l-3.2,-5.5V290.6H378.5v-3.4H392V276.9l-3.2,-5.5V260.8H358.3L351.7,274l6.6,13.2h9.3v3.4h-9.3l-6.6,13.2l6.6,13.2h9.3Zm-54.8,70l6.7,-13.2l-6.7,-13.2h40.6l-6.6,13.2l6.6,13.2H312.8Zm14.9,-70v3.3H312.8l6.7,13.2l-6.7,13.2h40.6l-6.6,-13.2l6.6,-13.2H338.5V317h14.9l-6.6,-13.2l6.6,-13.2H338.5v-3.4h14.9L346.8,274l6.6,-13.2H312.8l6.7,13.2l-6.7,13.2h14.9v3.4H312.8l6.7,13.2L312.8,317h14.9ZM250,317v3.3H239.3l-6.6,13.2l6.6,13.2h30.5V335.2l3.2,-5.5v-9.4H260.8V317h9V305.5L273,300v-9.4H260.8v-3.4h9V275.7l3.2,-5.5v-9.4H239.3L232.7,274l6.6,13.2H250v3.4H239.3l-6.6,13.2l6.6,13.2H250Zm37.8,3.3V317H274.2V306.7l3.2,-5.5V290.6h10.4v-3.4H274.2V276.9l3.2,-5.5V260.8h30.5l6.6,13.2l-6.6,13.2h-9.3v3.4h9.3l6.6,13.2L307.9,317h-9.3v3.3h9.3l6.6,13.2l-6.6,13.2H274.2V336.4l3.2,-5.5V320.3h10.4ZM418.7,496l-2.4,-4H141.5V475.1h-8.3L129.9,492H92.2L90,496m512.5,51.7l4.4,4.4H859.6l6.7,-13.2l-6.7,-13.2H602.5v22Zm-265.8,0l4.4,4.4H598.2V525.7H336.7v22Zm-4.3,4.4V525.7H75.4l-6.6,13.2l6.6,13.2h257ZM602.5,522.4H859.6l6.7,-13.2L859.6,496H422.5l-4.4,-7.3H144.8V471.8H130.4l-3.2,16.9H90.3L86.2,496H75.4l-6.6,13.2l6.6,13.2h257V499.6h4.3v22.8H598.2V499.6h4.3v22.8Zm-70.3,79.1l-2.4,-3.9H141.5V580.7h-8.3l-3.3,16.9H92.2L90,601.5m47.1,.5H527.3l4.4,7.2H854.9l4.5,9l6.9,-3.5l-6.7,-13.2H536.1l-4.5,-7.2H144.8V577.4H130.4l-3.2,16.9H90.3l-4.1,7.2H75.4l-6.6,13.2l6.8,3.5l4.5,-9H90.6L94.8,602h42.3ZM314.6,716.9H282.3V706.6l3.3,-5.4V690.5h32.2v10.7l-3.2,5.4v10.3Zm4.4,0V706.6l3.2,-5.4V690.5h32.2v10.7l-3.2,5.4v10.3H319Zm70.3,-26.4H358.8V702l-3.2,5.5v9.4h33.7l6.6,-13.2l-6.6,-13.2ZM247.5,716.9H278V705.4l3.2,-5.4v-9.5H247.5l-6.6,13.2l6.6,13.2Zm67.1,-29.7H282.3V676.9l3.3,-5.5V660.8h32.2v10.6l-3.2,5.5v10.3Zm4.4,0V676.9l3.2,-5.5V660.8h32.2v10.6l-3.2,5.5v10.3H319Zm70.3,-26.4H358.8v11.5l-3.2,5.5v9.4h33.7L395.9,674l-6.6,-13.2ZM247.5,687.2H278V675.7l3.2,-5.5v-9.4H247.5L240.9,674l6.6,13.2Zm-19.7,3.3H75.4l-6.6,13.2l6.6,13.2H227.8l4.4,-4.4V694.9l-4.4,-4.4Zm0,-29.7H75.4L68.8,674l6.6,13.2H227.8l4.4,-4.4V665.2l-4.4,-4.4Zm0,-29.8H75.4l-6.6,13.3l6.6,13.2H227.8l4.4,-4.4V635.4L227.8,631Zm19.7,26.5H278V645.9l3.2,-5.4V631H247.5l-6.6,13.3l6.6,13.2ZM389.3,631H358.8v11.6l-3.2,5.4v9.5h33.7l6.6,-13.2L389.3,631ZM319,657.5V647.1l3.2,-5.4V631h32.2v10.7l-3.2,5.4v10.4H319Zm-4.4,0H282.3V647.1l3.3,-5.4V631h32.2v10.7l-3.2,5.4v10.4Zm-86.8,62.8H75.4l-6.6,13.2l6.6,13.2H227.8l4.4,-4.4V724.7l-4.4,-4.4Zm0,29.7H75.4l-6.6,13.2l6.6,13.2H227.8l4.4,-4.4V754.4L227.8,750Zm19.7,-3.3H278V735.2l3.2,-5.5v-9.4H247.5l-6.6,13.2l6.6,13.2ZM389.3,720.3H358.8v11.5l-3.2,5.5v9.4h33.7l6.6,-13.2l-6.6,-13.2ZM319,746.7V736.4l3.2,-5.5V720.3h32.2v10.6l-3.2,5.5v10.3H319Zm-4.4,0H282.3V736.4l3.3,-5.5V720.3h32.2v10.6l-3.2,5.5v10.3Zm-67.1,29.7H278V764.9l3.2,-5.5V750H247.5l-6.6,13.2l6.6,13.2ZM389.3,750H358.8v11.5l-3.2,5.5v9.4h33.7l6.6,-13.2L389.3,750ZM319,776.4V766.1l3.2,-5.5V750h32.2v10.6l-3.2,5.5v10.3H319Zm-4.4,0H282.3V766.1l3.3,-5.5V750h32.2v10.6l-3.2,5.5v10.3ZM137.1,827.6H668.6l4.5,7.2H854.9l4.5,9l6.9,-3.5l-6.7,-13.2H677.4l-4.5,-7.2H144.8V803H130.4l-3.2,16.9H90.3l-4.1,7.2H75.4l-6.6,13.2l6.8,3.5l4.5,-9H90.6l4.2,-7.2h42.3Zm536.4,-.5l-2.4,-3.9H141.5V806.3h-8.3l-3.3,16.9H92.2L90,827.1m477.7,85.7H483l-4.4,-4.4V856.7H851.8l14.5,28l-14.5,28.1H567.7ZM227.8,856.7H75.4l-6.6,13.2l6.6,13.2H227.8l4.4,-4.4V861.1l-4.4,-4.4Zm54.5,26.4V872.8l3.3,-5.5V856.7h30.5l6.6,13.2l-6.6,13.2H282.3Zm-34.8,0H278V871.6l3.2,-5.5v-9.4H247.5l-6.6,13.2l6.6,13.2Zm215.9,0H432.9V871.6l-3.2,-5.5v-9.4h33.7l6.6,13.2l-6.6,13.2Zm-34.9,0V872.8l-3.2,-5.5V856.7H394.8l-6.6,13.2l6.6,13.2h33.7Zm-70.9,0h32.2l-6.6,-13.2l6.6,-13.2H357.6v26.4Zm-4.4,-26.4v26.4H321l6.6,-13.2L321,856.7h32.2ZM115.3,916.1H75.4l-6.6,13.2l6.6,13.2H227.8l4.4,-4.4V920.5l-4.4,-4.4H115.3Zm452.4,56.2H483l-4.4,-4.4V916.1H851.8l14.5,28.1l-14.5,28.1H567.7ZM353.2,916.1v26.4H321l6.6,-13.2L321,916.1h32.2Zm4.4,26.4h32.2l-6.6,-13.2l6.6,-13.2H357.6v26.4Zm70.9,0V932.2l-3.2,-5.4V916.1H394.8l-6.6,13.2l6.6,13.2h33.7Zm34.9,0H432.9V931l-3.2,-5.4v-9.5h33.7l6.6,13.2l-6.6,13.2Zm-215.9,0H278V931l3.2,-5.4v-9.5H247.5l-6.6,13.2l6.6,13.2Zm34.8,0V932.2l3.3,-5.4V916.1h30.5l6.6,13.2l-6.6,13.2H282.3Zm126.6,-285H859.6l6.6,-13.2L859.6,631H404.5v22.1l4.4,4.4Zm0,29.7H859.6L866.2,674l-6.6,-13.2H404.5v22l4.4,4.4Zm0,29.7H859.6l6.6,-13.2l-6.6,-13.2H404.5v22l4.4,4.4Zm0,29.8H859.6l6.6,-13.2l-6.6,-13.2H404.5v22l4.4,4.4ZM404.5,772V750H859.6l6.6,13.2l-6.6,13.2H813.2l-6.5,4.3H699.6L693,776.4H408.9L404.5,772ZM230.7,133.4H188.8v22l4.4,4.4H407.6l6.6,-13.2l-6.6,-13.2H288l-6.6,-4.3H237.3l-6.6,4.3Zm190.4,43l-4.8,-9.8h-7l-1.7,-3.4H188.8v22l4.4,4.4H407.6l1.7,-3.5h7l4.8,-9.7Zm89.4,974.3l6.6,-4.3h44.1l6.5,4.3H851.8l14.5,-28.1l-14.5,-28H478.6v51.7l4.4,4.4h27.5Z" class="g0"/>
</svg>