<?xml version="1.0" encoding="UTF-8" standalone="no"?>
<!DOCTYPE svg PUBLIC "-//W3C//DTD SVG 1.1//EN"
"http://www.w3.org/Graphics/SVG/1.1/DTD/svg11.dtd">
<svg viewBox="0 0 935 1210" version="1.1" xmlns="http://www.w3.org/2000/svg" xmlns:xlink="http://www.w3.org/1999/xlink">
<defs>
<style type="text/css"><![CDATA[
.g0{
fill: none;
stroke: #050604;
stroke-width: 1.145;
stroke-linecap: round;
stroke-linejoin: round;
stroke-miterlimit: 4;
}
.g1{
fill: none;
stroke: #231F20;
stroke-width: 1.145;
stroke-linecap: butt;
stroke-linejoin: miter;
}
]]></style>
</defs>
<path d="M561.4,1057.3H380.2l-4.4,4.4v47.9l-5.2,6.2v23H343.1V992.6l-4.4,-4.4H179.1l-6.5,-4.3H128.4l-6.5,4.3H73.2l-4.4,4.4v77.6l4.2,6.6v44.1l-4.2,6.6v18.8l4.4,4.4H338.7l4.4,-4.4h32.7l4.4,4.4H780.9l6.6,-4.2h44.1l6.6,4.2h23.7l4.4,-4.4v-84.6l-4.4,-4.4H680.6M785.5,729.1l-2.4,-4H664.6V708.2h-8.3L653,725.1H615.4l-2.3,4m25.4,29.7h-40L591.9,772l6.6,13.2H724.8V758.8H638.5Zm176.9,0h40L862,772l-6.6,13.2H729.1V758.8h86.3Zm0,29.7h40l6.6,13.2l-6.6,13.2H729.1V788.5h86.3Zm-176.9,0h-40l-6.6,13.2l6.6,13.2H724.8V788.5H638.5Zm15.1,-83.6l-3.3,16.9H613.5l-4.2,7.3H598.5l-6.6,13.2l6.6,13.2H724.8V729.1h4.3v26.4H855.4L862,742.3l-6.6,-13.2H789.3l-4.4,-7.3h-117V704.9H653.6ZM847.5,115.4h-371v-17h-8.4l-3.2,17H427.2L417,132.5M835.7,357.8l4.1,-7l-8.3,-14.3H815l-8.3,14.3l8.3,14.3h7.8l4.2,-7.3h8.7Zm2.6,3l5.8,-10l-10.4,-18H812.8l-10.4,18l10.4,18.1h11l3.2,5.6h9.6l4.8,-8.3l-3.1,-5.4Zm-49.9,8.1l10.4,-18.1l-10.4,-18H767.6l-6,10.4h-4.5l-6,-10.4H730.2l-6,10.4h-4.5l-6,-10.4H692.8l-10.4,18l10.4,18.1h20.9l6,-10.4h4.5l6,10.4h20.9l6,-10.4h4.5l6,10.4h20.8Zm-2.1,-3.8l8.2,-14.3l-8.2,-14.3H769.7l-8.2,14.3l8.2,14.3h16.6Zm-74.8,0l8.3,-14.3l-8.3,-14.3H695l-8.3,14.3l8.3,14.3h16.5Zm37.4,0l8.3,-14.3l-8.3,-14.3H732.4l-8.3,14.3l8.3,14.3h16.5Zm85.8,6.1l2.9,-5l-2.9,-5.1h-5.8l-2.9,5.1l2.9,5h5.8Zm23.5,-26.5l-14.7,-30H620.6V297.8h-8.3L609,314.7H571.3L561.2,333m48.4,-38.5l-3.3,16.9H569.4l-22.7,39.4l10.4,18.1H568l3.3,5.6h9.6l4.8,-8.3l-3.1,-5.4l5.7,-10l-10.4,-18H566l8.2,-14.2H841.4l13.8,27.5v28.4l7.2,-6.9V343.3l-16,-31.9H623.9V294.5H609.6Zm-13.4,56.3l8.3,14.3h7.8l4.2,-7.3h8.7l4.1,-7L621,336.5H604.5l-8.3,14.3Zm37.4,0l-10.4,-18H602.3l-10.4,18l10.4,18.1h11l3.2,5.6h9.6l4.8,-8.3l-3.1,-5.4l5.8,-10Zm-6.5,15.4l-2.9,-5.1h-5.8l-2.9,5.1l2.9,5h5.8l2.9,-5ZM551,350.8l8.2,14.3H567l4.3,-7.3H580l4,-7l-8.2,-14.3H559.2L551,350.8Zm30.9,15.4L579,361.1h-5.8l-2.9,5.1l2.9,5H579l2.9,-5Zm90.5,0l-2.9,-5.1h-5.8l-2.9,5.1l2.9,5h5.8l2.9,-5Zm6.4,-15.4l-10.4,-18H647.6l-10.4,18l10.4,18.1h10.9l3.3,5.6h9.6l4.8,-8.3l-3.1,-5.4l5.7,-10Zm-37.3,0l8.2,14.3h7.8l4.3,-7.3h8.7l4,-7l-8.2,-14.3H649.7l-8.2,14.3Zm-355,462V802.5l3.2,-5.5V786.4h30.5l6.6,13.2l-6.6,13.2H286.5Zm0,29.7V832.2l3.2,-5.4V816.1h30.5l6.6,13.2l-6.6,13.2H286.5Zm0,29.8V862l3.2,-5.5V845.9h30.5l6.6,13.2l-6.6,13.2H286.5Zm0,29.7V891.7l3.2,-5.5V875.6h30.5l6.6,13.2L320.2,902H286.5Zm0,29.8V921.4l3.2,-5.4V905.4h30.5l6.6,13.2l-6.6,13.2H286.5Zm0,29.7V951.2l3.2,-5.5V935.1h30.5l6.6,13.2l-6.6,13.2H286.5ZM251.6,812.8h30.5V801.3l3.2,-5.5v-9.4H251.6L245,799.6l6.6,13.2Zm0,29.7h30.5V831l3.2,-5.4v-9.5H251.6L245,829.3l6.6,13.2Zm0,29.8h30.5V860.8l3.2,-5.5v-9.4H251.6L245,859.1l6.6,13.2Zm0,29.7h30.5V890.5l3.2,-5.5v-9.4H251.6L245,888.8l6.6,13.2Zm0,29.8h30.5V920.2l3.2,-5.4v-9.4H251.6L245,918.6l6.6,13.2Zm0,29.7h30.5V950l3.2,-5.5v-9.4H251.6L245,948.3l6.6,13.2ZM131.7,786.4h-40l-6.6,13.2l6.6,13.2H234.9l4.4,-4.4V790.8l-4.4,-4.4H131.7Zm0,29.7h-40l-6.6,13.2l6.6,13.2H234.9l4.4,-4.4V820.5l-4.4,-4.4H131.7Zm0,29.8h-40l-6.6,13.2l6.6,13.2H234.9l4.4,-4.4V850.3l-4.4,-4.4H131.7ZM239.3,961.5v-22l-4.4,-4.4H91.7l-6.6,13.2l6.6,13.2h90.4l6.5,4.3h44.2l6.5,-4.3ZM131.7,905.4h-40l-6.6,13.2l6.6,13.2H234.9l4.4,-4.4V909.8l-4.4,-4.4H131.7Zm0,-29.8h-40l-6.6,13.2L91.7,902H234.9l4.4,-4.4V880l-4.4,-4.4H131.7ZM157.4,740.4v17H327.1l16,31.9v47.5l-7.2,6.9V792L322.2,764.6H87l-11,11V948.5l-3.6,-3.4V878.3l-3.7,-3.5V771.9L83.3,757.4h56.5l3.3,-17h14.3Zm177,39.3l-10,-19H154.1v-17h-8.3l-3.3,17H86.2L73.8,773.4M212.3,483.7c2.2,-.8,3.3,-2,3.9,-4.2H335.7v9.4c-1,1.8,-2.1,3.7,-3.2,5.5v11.5H216.2c-.6,-2.2,-1.7,-3.4,-3.9,-4.2v-18Zm3.9,141.1H332.5V613.3c1.1,-1.8,2.2,-3.6,3.2,-5.4v-9.5H216.2c-.6,2.3,-1.7,3.5,-3.9,4.3v17.9c2.2,.8,3.3,2,3.9,4.2ZM208,531.4v-18c-2.2,-.7,-3.3,-1.9,-3.9,-4.2H91.7c-2.2,4.4,-4.4,8.8,-6.6,13.2c2.2,4.4,4.4,8.8,6.6,13.2H204.1c1.7,-6.1,10.4,-6.1,12.1,0H332.5V524.1c1.1,-1.8,2.2,-3.6,3.2,-5.5v-9.4H216.2c-.6,2.3,-1.7,3.5,-3.9,4.2v18m0,-77.4c2.2,-.8,3.3,-2,3.9,-4.3H335.7v9.5c-1,1.8,-2.1,3.6,-3.2,5.4v11.6H216.2c-.6,-2.3,-1.7,-3.5,-3.9,-4.3V454ZM208,483.7c-2.2,-.8,-3.3,-2,-3.9,-4.2H91.7c-2.2,4.4,-4.4,8.8,-6.6,13.2c2.2,4.4,4.4,8.8,6.6,13.2H204.1c.6,-2.2,1.7,-3.4,3.9,-4.2v-18Zm-3.9,-34c.6,2.3,1.7,3.5,3.9,4.3v17.9c-2.2,.8,-3.3,2,-3.9,4.3H91.7C89.5,471.8,87.3,467.4,85.1,463c2.2,-4.4,4.4,-8.8,6.6,-13.3H204.1ZM335.7,628.2H216.2c-.6,2.2,-1.7,3.4,-3.9,4.2v18c2.2,.8,3.3,2,3.9,4.2H332.5V643.1c1.1,-1.8,2.2,-3.7,3.2,-5.5v-9.4ZM208,620.6V602.7c-2.2,-.8,-3.3,-2,-3.9,-4.3H91.7c-2.2,4.4,-4.4,8.8,-6.6,13.2c2.2,4.4,4.4,8.8,6.6,13.2H204.1c.6,-2.2,1.7,-3.4,3.9,-4.2Zm127.7,37.3H216.2c-.6,2.3,-1.7,3.4,-3.9,4.2v18c2.2,.8,3.3,2,3.9,4.2H332.5V672.8c1.1,-1.8,2.2,-3.6,3.2,-5.5v-9.4ZM204.1,628.2H91.7c-2.2,4.4,-4.4,8.8,-6.6,13.2c2.2,4.4,4.4,8.8,6.6,13.2H204.1c.6,-2.2,1.7,-3.4,3.9,-4.2v-18c-2.2,-.8,-3.3,-2,-3.9,-4.2Zm8.2,63.7v22.2h35.1c2.2,1.4,4.3,2.8,6.5,4.3h44.2c2.1,-1.5,4.3,-2.9,6.5,-4.3h27.9V702.6c1.1,-1.9,2.2,-3.7,3.2,-5.5v-9.4H216.2c-.6,2.2,-1.7,3.4,-3.9,4.2Zm-8.2,-34H91.7c-2.2,4.4,-4.4,8.8,-6.6,13.2c2.2,4.4,4.4,8.8,6.6,13.2H204.1c.6,-2.2,1.7,-3.4,3.9,-4.2v-18c-2.2,-.8,-3.3,-1.9,-3.9,-4.2Zm8.2,-114.7v18c2.2,.7,3.3,1.9,3.9,4.2H332.5V553.9c1.1,-1.9,2.2,-3.7,3.2,-5.5V539H216.2c-1.7,6.1,-10.4,6.1,-12.1,0H91.7c-2.2,4.4,-4.4,8.8,-6.6,13.2c2.2,4.4,4.4,8.8,6.6,13.2H204.1c.6,-2.3,1.7,-3.5,3.9,-4.2v-18m-3.9,144.5H91.7c-2.2,4.4,-4.4,8.8,-6.6,13.2c2.2,4.4,4.4,8.8,6.6,13.2H208V691.9c-2.2,-.8,-3.3,-2,-3.9,-4.2ZM507.2,413.3l-10.1,-19h-343V377.4h-8.3l-3.3,16.9H86.2L73.8,407M456,420H340.1v10.6l-3.2,5.5v10.3H452.8V434.9l3.2,-5.5V420ZM332.5,446.4V434.9c1.1,-1.8,2.2,-3.6,3.2,-5.5V420H212.3v22.2c2.2,.8,3.3,2,3.9,4.2H332.5Zm124.7,0V436.1l3.2,-5.5V420h30.5l6.6,13.2l-6.6,13.2H457.2Zm-1.2,3.3H340.1v10.7l-3.2,5.4v10.4H452.8V464.6l3.2,-5.4v-9.5Zm1.2,264.4V703.8l3.2,-5.5V687.7h30.5l6.6,13.2l-6.6,13.2H457.2ZM340.1,687.7v10.6l-3.2,5.5v10.3H452.8V702.6l3.2,-5.5v-9.4H340.1ZM456,479.5H340.1v10.6l-3.2,5.5v10.3H452.8V494.4l3.2,-5.5v-9.4Zm4.4,-29.8v10.7l-3.2,5.4v10.4h26.3l-1,1.6l1,1.7H460.4v10.6l-3.2,5.5v10.3h33.7l6.6,-13.2l-5.6,-11.1l2.2,-3.8L491.9,474l5.6,-11l-6.6,-13.3H460.4ZM204.1,595.1c.6,-2.2,1.7,-3.4,3.9,-4.2v-18c-2.2,-.8,-3.3,-2,-3.9,-4.2H91.7c-2.2,4.4,-4.4,8.8,-6.6,13.2c2.2,4.4,4.4,8.8,6.6,13.2H204.1ZM457.2,565.4V555.1l3.2,-5.5V539h30.5l1.7,3.4h7l4.8,9.8l-4.8,9.7h-7l-1.7,3.5H457.2Zm0,89.2V644.3l3.2,-5.5V628.2h30.5l6.6,13.2l-6.6,13.2H457.2ZM340.1,628.2v10.6l-3.2,5.5v10.3H452.8V643.1l3.2,-5.5v-9.4H340.1ZM457.2,535.6V525.3l3.2,-5.5V509.2h30.5l6.6,13.2l-6.6,13.2H457.2Zm0,148.7V674l3.2,-5.5V657.9h30.5l6.6,13.2l-6.6,13.2H457.2ZM340.1,657.9v10.6l-3.2,5.5v10.3H452.8V672.8l3.2,-5.5v-9.4H340.1ZM457.2,624.8V614.5l3.2,-5.4V598.4h30.5l6.6,13.2l-6.6,13.2H457.2ZM340.1,568.7v10.6l-3.2,5.5v10.3H452.8V583.6l3.2,-5.5v-9.4H340.1Zm117.1,26.4V584.8l3.2,-5.5V568.7h30.5l6.6,13.2l-6.6,13.2H457.2Zm-117.1,3.3v10.7l-3.2,5.4v10.3H452.8V613.3l3.2,-5.4v-9.5H340.1Zm0,-89.2v10.6l-3.2,5.5v10.3H452.8V524.1l3.2,-5.5v-9.4H340.1Zm0,29.8v10.6l-3.2,5.5v10.3H452.8V553.9l3.2,-5.5V539H340.1ZM208,442.2V420H91.7c-2.2,4.4,-4.4,8.8,-6.6,13.2c2.2,4.4,4.4,8.8,6.6,13.2H204.1c.6,-2.2,1.7,-3.4,3.9,-4.2ZM332.5,595.1V583.6c1.1,-1.8,2.2,-3.7,3.2,-5.5v-9.4H216.2c-.6,2.2,-1.7,3.4,-3.9,4.2v18c2.2,.8,3.3,2,3.9,4.2H332.5ZM157.4,374.1V391H500l16,31.9v47.5l-7.3,6.9V425.7L495,398.2H87l-11,11V692.7l-3.6,-3.4V511.9l-3.7,-3.5V405.5L83.3,391h56.5l3.3,-16.9h14.3ZM168.2,252.4v26.4H91.7L85.1,265.6l6.6,-13.2h76.5Zm4.3,26.4h126l6.6,-13.2l-6.6,-13.2h-126v26.4ZM102,338.3H91.7L85.1,325.1l6.6,-13.2h76.5v26.4h-8.9l-6.6,4.3H108.6L102,338.3Zm70.5,0h126l6.6,-13.2l-6.6,-13.2h-126v26.4Zm0,-29.8h126l6.6,-13.2l-6.6,-13.2h-126v26.4Zm-4.3,-26.4v26.4H91.7L85.1,295.3l6.6,-13.2h76.5Zm226.7,21.7l-9.6,-16.7H358.8L345.6,310l13.2,22.9h26.5l9.6,-16.7L389,310l5.9,-6.2Zm89.2,-11.6H395l-6.3,-11H355.5L338.9,310l16.6,28.7h33.2l6.3,-11h89.1L501,310L484.1,292.2ZM589.4,151.5l-8.3,-14.3H564.6l-8.3,14.3l8.3,14.3h16.5l8.3,-14.3Zm-37.4,0l-8.2,-14.3H527.2L519,151.5l8.2,14.3h16.6L552,151.5Zm-37.3,0l-8.3,-14.3H489.9l-8.3,14.3l8.3,14.3h16.5l8.3,-14.3Zm-37.4,0L469,137.2H452.5l-8.3,14.3l8.3,14.3H469l8.3,-14.3Zm-37.4,0l-8.3,-14.3H415.1l-8.3,14.3l8.3,14.3h16.5l8.3,-14.3ZM491.2,205H859.6l6.6,-13.2l-6.6,-13.2H491.2V205Zm0,29.8H859.6l6.6,-13.2l-6.6,-13.2H491.2v26.4Zm-4.3,-26.4v26.4H410.3l-6.6,-13.2l6.6,-13.2h76.6Zm0,29.7v26.4H410.3l-6.6,-13.2l6.6,-13.2h76.6Zm93.5,26.4H859.6l6.7,-13.2l-6.7,-13.2H491.2v26.4h31.9l6.6,4.3h44.1l6.6,-4.3ZM450.3,178.6h-40l-6.6,13.2l6.6,13.2h76.6V178.6H450.3ZM810.2,147l9.6,16.7h26.5l13.2,-22.9L846.3,117.9H819.8l-9.6,16.7l5.9,6.2l-5.9,6.2ZM786.7,423.2l-2.4,-3.9H665.8V402.4h-8.3l-3.3,16.9H616.6l-2.3,3.9m213.2,56.2H850l2.5,-4.9h8.9l4.9,-8.3l-4.9,-8.3h-8.9L850,453H680.6v26.4h89.7l6.6,4.3H821l6.5,-4.3ZM654.8,399.1L651.5,416H614.7l-4.2,7.2H599.7l-6.6,13.2l6.6,13.2h76.6V423.2h4.3v26.4H850l2.5,-4.8h8.9l4.8,-8.4l-4.8,-8.3h-8.9L850,423.2H790.6L786.1,416h-117V399.1H654.8ZM676.3,453v26.4H599.7l-6.6,-13.2L599.7,453h76.6Zm4.3,26.4h-4.3m186.1,-43l-2.9,-5h-5.8l-2.9,5l2.9,5.1h5.8l2.9,-5.1Zm0,29.8l-2.9,-5h-5.8l-2.9,5l2.9,5h5.8l2.9,-5Zm-223.9,97h-40l-6.6,13.2l6.6,13.2H724.8V563.2H638.5Zm15.1,-53.8l-3.3,16.9H613.5l-4.2,7.2H598.5l-6.6,13.2l6.6,13.2H724.8V533.5h4.3v26.4H855.4L862,546.7l-6.6,-13.2H789.3l-4.4,-7.2h-117V509.4H653.6Zm122.1,80.2H729.1V563.2H855.4l6.6,13.2l-6.6,13.2H832.9l-6.6,4.3H782.2l-6.5,-4.3Zm9.8,-56.1l-2.4,-3.9H664.6V512.7h-8.3L653,529.6H615.4l-2.3,3.9M792,658.9L782,639.8H663.5V622.9h-8.3l-3.3,16.9H614.3L604,657m48.5,-37.4l-3.3,16.9H612.4l-14.6,25.2h8.9l2.2,-3.8h11.9l2.2,3.8h26.9l10.3,-17.9h7.3l-8.1,13.9l10,17.2h19.9l8.9,-15.5l9,15.5h10.3l2.9,5.1H730l4.8,-8.4l-2.9,-5l5.1,-8.9l-8,-13.9h51.6l9,17.9h8.6L785.6,636.5H666.8V619.6H652.5Zm75.6,57.1l2.9,-5.1l-2.9,-5h-5.8l-2.9,5l2.9,5.1h5.8ZM691.2,643.8h14.1L698.2,656l-7,-12.2Zm17.9,27.8L701,657.7l8.1,-13.9h16.1l8,13.9l-3.2,5.6h-9.6l-4.8,8.3h-6.5ZM695.4,657.7l-8,13.9H671.3l-8.1,-13.9l8.1,-13.9h16.1l8,13.9ZM346.5,176.4l-4.9,-9.8h-6.9l-1.8,-3.4H172.5v26.4H332.9l1.8,-3.4h6.9l4.9,-9.8ZM168.2,189.6H91.7L85.1,176.4l6.6,-13.2h76.5v26.4Zm0,3.3v26.4H91.7L85.1,206.1l6.6,-13.2h76.5Zm0,29.8v26.4H91.7L85.1,235.9l6.6,-13.2h76.5Zm46.2,-89.3H172.5v26.5H332.9l6.7,-13.2l-6.7,-13.3H271.7l-6.6,-4.2H221l-6.6,4.2Zm103,85.9l-1.6,3.4H172.5v26.4h126l6.6,-13.2l-4.3,-8.7H329l10.5,-21.1l-6.6,-13.2H172.5v26.4H317.4ZM168.2,133.4v26.5H91.7L85.1,146.7l6.6,-13.3h76.5ZM157.4,95.1v17H344.3l16,31.9v47.5l-7.3,6.9V146.7L339.3,119.3H87l-11,11v165l-3.6,-3.4V233l-3.7,-3.5V126.6L83.3,112.1h56.5l3.3,-17h14.3Zm194.1,39.3l-10.1,-19H154.1v-17h-8.3l-3.3,17H86.2L73.8,128.1m391.6,-33l-3.3,17H425.3l-22.8,39.4l10.5,18h20.8l6,-10.4h4.5l6,10.4h20.9l6,-10.4h4.5l6,10.4h20.8l6.1,-10.4h4.5l6,10.4h20.8l6,-10.4h4.5l6.1,10.4h20.8l10.4,-18L583.3,133.4H562.5l-6.1,10.5h-4.5l-6,-10.5H525.1l-6,10.5h-4.5l-6.1,-10.5H487.7l-6,10.5h-4.5l-6,-10.5H450.3l-6,10.5h-4.5l-6,-10.5h-12L430,119.3H812.3L806.1,130H743l-10.3,10.8L743,151.6h63.1l10.4,17.9h33.2l16.6,-28.7L849.7,112.1H479.8v-17H465.4Zm37.5,1001.6l-1.6,-2.6H422.5v-11.2H417l-2.2,11.2h-25l-1.5,2.6m454.2,0l-1.6,-2.6H762.1v-11.2h-5.5l-2.2,11.2h-25l-1.5,2.6m-57.2,0l-1.6,-2.6H590.4v-11.2h-5.5l-2.2,11.2H557.6l-1.5,2.6m147.3,11.2v3.8l9.6,-7.1l-9.6,-7.1v3.8H687.7v6.6h15.7Zm2.2,-.6l3.7,-2.7l-3.7,-2.7v1.6H689.9v2.2h15.7v1.6Zm-171,.6v3.8l9.6,-7.1l-9.6,-7.1v3.8H518.9v6.6h15.7Zm2.2,-.6l3.7,-2.7l-3.7,-2.7v1.6H521.1v2.2h15.7v1.6Zm28,-37.4H677.2l4.8,-9.7l-4.8,-9.7H564.8l-4.8,9.7l4.8,9.7ZM459.5,903.7H859.6l6.7,-13.2l-6.7,-13.2H459.5v26.4Zm0,59.5H859.6L866.3,950l-6.7,-13.2H459.5v26.4Zm0,-29.8H859.6l6.7,-13.2L859.6,907H459.5v26.4Zm-75,-85.9H373.7l-6.6,13.2l6.6,13.2h81.5V851.1h4.3v22.8H859.6l6.6,-13.2l-6.6,-13.2H564.5l-4.4,-7.2h-117V823.4H428.8l-3.3,16.9H388.6l-4.1,7.2Zm29.2,29.8h-40l-6.6,13.2l6.6,13.2h81.5V877.3H413.7Zm0,29.7h-40l-6.6,13.2l6.6,13.2h81.5V907H413.7Zm147,-59.5l-2.5,-3.9H439.8V826.7h-8.3l-3.3,16.9H390.5l-2.2,3.9m66.9,119v26.4H373.7l-6.6,-13.2l6.6,-13.2h81.5Zm4.3,26.4H859.6l6.7,-13.2l-6.7,-13.2H459.5v26.4Zm89.1,29.7h311l6.6,-13.2l-6.6,-13.2H459.5v26.4h31.9l6.5,4.3h44.2l6.5,-4.3ZM455.2,996.2v26.4H373.7l-6.6,-13.2l6.6,-13.2h81.5Zm0,-59.4v26.4H373.7L367.1,950l6.6,-13.2h81.5Z" class="g0"/>
<path d="M98.2,1055.3H308.6M98.2,1125.6H308.6M98.2,1102.2H308.6M98.2,1078.7H308.6" class="g1"/>
<path d="M499.1,774.9l9.6,16.7h26.4l13.3,-22.9L535.1,745.8H508.7l-9.6,16.7l5.9,6.2l-5.9,6.2Zm-89.2,11.6H499l6.3,11h33.2l16.6,-28.8L538.5,740H505.3L499,751H409.9L393,768.7l16.9,17.8Z" class="g0"/>
</svg>